<svg viewBox="0 0 74 74" xmlns="http://www.w3.org/2000/svg"><rect fill="#eab544" height="47.93" rx="5.63" width="47.93" x="8.44" y="18.07"/><path d="m65.76 11.49-4.9-3a.72.72 0 0 0 -.92.22l-2.85 3.66h-43.93a3 3 0 0 0 -3 3v44.77a3 3 0 0 0 3 3h44.74a3 3 0 0 0 3-3v-41.2l4.94-6.63a.54.54 0 0 0 -.08-.82zm-7.69 48.65a.18.18 0 0 1 -.17.18h-44.74a.18.18 0 0 1 -.18-.18v-44.73a.18.18 0 0 1 .18-.18h41.71l-20.1 25.84a.69.69 0 0 1 -1.07.09l-5.19-7.16a.68.68 0 0 0 -1 0l-5.15 5.44a.6.6 0 0 0 -.11.75l10.62 15.94.26.08 24.94-33.45z" fill="#1d4288"/></svg>