<svg xmlns="http://www.w3.org/2000/svg" viewBox="0 0 49.5 29.55"><defs><style>.cls-1{fill:#e2b65a;}.cls-2,.cls-4{fill:none;stroke:#264381;stroke-linecap:round;stroke-width:1.4px;}.cls-2{stroke-linejoin:round;}.cls-3{fill:#264381;}.cls-4{stroke-miterlimit:10;}</style></defs><title>dial</title><g id="Layer_2" data-name="Layer 2"><g id="Layer_5" data-name="Layer 5"><path class="cls-1" d="M4.48,25.85a.64.64,0,0,1-.64-.65,19.91,19.91,0,0,1,39.79,0,.65.65,0,0,1-.64.65Z"/><path class="cls-2" d="M4.83,28.85a19.91,19.91,0,1,1,39.81,0Z"/><line class="cls-2" x1="45.3" y1="20.2" x2="48.8" y2="20.2"/><line class="cls-2" x1="0.7" y1="20.2" x2="4.83" y2="20.2"/><line class="cls-2" x1="4.83" y1="8.94" x2="13.62" y2="17.74"/><line class="cls-2" x1="45.3" y1="9.63" x2="36.62" y2="17.74"/><line class="cls-2" x1="13.69" y1="2.96" x2="15.6" y2="7.44"/><line class="cls-2" x1="24.73" y1="0.7" x2="24.73" y2="5.16"/><line class="cls-2" x1="35.75" y1="2.94" x2="33.84" y2="7.43"/><circle class="cls-3" cx="24.73" cy="26.65" r="1.4"/><line class="cls-4" x1="29.95" y1="22.33" x2="24.73" y2="26.65"/></g></g></svg>