<svg xmlns="http://www.w3.org/2000/svg" viewBox="0 0 53.5 51.13">
  <circle cx="26.7" cy="27.08" r="24.05" fill="#fff"/>
  <path fill="#e2b65a" d="M26.68,43.07C22.35,41.81,10,33.13,10,23.45c0-5.06,3.37-10.34,9.59-10.34a7.08,7.08,0,0,1,7.11,4.71,7.08,7.08,0,0,1,7.11-4.71c6.23,0,9.59,5.28,9.59,10.34C43.38,33.13,31,41.81,26.68,43.07Z"/>
  <path fill="none" stroke="#264381" stroke-linecap="round" stroke-linejoin="round" stroke-width="1.5px" d="M26.68,45.12c-4.62-1.35-17.8-10.6-17.8-20.93,0-5.39,3.59-11,10.22-11,6.15,0,7.58,5,7.58,5s1.43-5,7.58-5c6.64,0,10.23,5.62,10.23,11C44.49,34.52,31.3,43.77,26.68,45.12Z"/>
  <line x1="6.78" x2="0.75" y1="26.75" y2="26.75" fill="none" stroke="#264381" stroke-linecap="round" stroke-linejoin="round" stroke-width="1.5px"/>
  <line x1="52.75" x2="46.72" y1="26.75" y2="26.75" fill="none" stroke="#264381" stroke-linecap="round" stroke-linejoin="round" stroke-width="1.5px"/>
  <line x1="12.62" x2="8.37" y1="12.62" y2="8.37" fill="none" stroke="#264381" stroke-linecap="round" stroke-linejoin="round" stroke-width="1.5px"/>
  <line x1="45.13" x2="40.88" y1="45.13" y2="40.88" fill="none" stroke="#264381" stroke-linecap="round" stroke-linejoin="round" stroke-width="1.5px"/>
  <line x1="26.75" x2="26.75" y1="6.79" y2="0.75" fill="none" stroke="#264381" stroke-linecap="round" stroke-linejoin="round" stroke-width="1.5px"/>
  <line x1="40.87" x2="45.13" y1="12.63" y2="8.37" fill="none" stroke="#264381" stroke-linecap="round" stroke-linejoin="round" stroke-width="1.5px"/>
  <line x1="8.37" x2="12.62" y1="45.13" y2="40.88" fill="none" stroke="#264381" stroke-linecap="round" stroke-linejoin="round" stroke-width="1.5px"/>
</svg>
