<?xml version="1.0" encoding="utf-8"?>
<!-- Generator: Adobe Illustrator 22.1.0, SVG Export Plug-In . SVG Version: 6.00 Build 0)  -->
<svg version="1.1" id="Layer_1" xmlns="http://www.w3.org/2000/svg" xmlns:xlink="http://www.w3.org/1999/xlink" x="0px" y="0px"
	 viewBox="0 0 441 201" style="enable-background:new 0 0 441 201;" xml:space="preserve">
<style type="text/css">
	.st0{font-family:'CourierNewPSMT';}
	.st1{font-size:20.043px;}
	.st2{font-family:'Courier-Bold';}
	.st3{fill:#199DE1;}
	.st4{fill:none;stroke:#D21028;stroke-width:0.9544;stroke-miterlimit:10;}
	.st5{opacity:0.127;enable-background:new    ;}
</style>
<g id="text">
	<g id="labels">
		<text id="trig" transform="matrix(1 0 0 1 36.7666 166.2578)" class="st0 st1">Triglycerides</text>
		<text id="vldl" transform="matrix(1 0 0 1 36.7666 140.4883)" class="st0 st1">VLDL Cholesterol Calc</text>
		<text id="hdl" transform="matrix(1 0 0 1 36.7666 114.7188)" class="st0 st1">HDL Cholesterol</text>
		<text id="ldl" transform="matrix(1 0 0 1 36.7666 88.9487)" class="st0 st1">LDL Cholesterol Calc</text>
		<text id="total" transform="matrix(1 0 0 1 36.7666 63.1792)" class="st0 st1">Cholesterol, Total</text>
	</g>
	<g id="numbers">
		<text transform="matrix(1 0 0 1 369.7852 166.2578)" class="st0 st1">233</text>
		<text transform="matrix(1 0 0 1 381.8115 140.4883)" class="st0 st1">28</text>
		<text transform="matrix(1 0 0 1 381.8115 114.7188)" class="st0 st1">44</text>
		<text transform="matrix(1 0 0 1 369.7852 88.9487)" class="st0 st1">139</text>
		<text transform="matrix(1 0 0 1 370.7305 63.1792)" class="st0 st1">201</text>
	</g>
	<text id="title" transform="matrix(1 0 0 1 10.0425 37.4097)" class="st2 st1">Lab Results</text>
</g>
<g id="selects">
	<g>
		<path id="arrow" class="st3" d="M430.2,52.9h-9.7v-3.1c0-0.7-0.3-0.8-0.5-0.8c-0.3,0-0.6,0.2-0.8,0.5l-6.8,6.3
			c-0.2,0.2-0.3,0.5-0.3,0.8s0.1,0.6,0.3,0.7c0.8,0.8,6.8,5.8,7,6s0.4,0.5,0.8,0.5s0.5-0.1,0.5-1v-3.1h9.4c0.2,0,0.6-0.2,0.6-1v-4.9
			C430.9,52.9,430.4,52.9,430.2,52.9z"/>
		<path id="select" class="st4" d="M36.8,46h365.5c3.7,0,6.7,3,6.7,6.7v8.6c0,3.7-3,6.7-6.7,6.7H36.8c-3.7,0-6.7-3-6.7-6.7v-8.6
			C30.1,49,33,46,36.8,46z"/>
	</g>
	<g>
		<path id="arrow_1_" class="st3" d="M430.2,78.7h-9.7v-3.1c0-0.7-0.3-0.8-0.5-0.8c-0.3,0-0.6,0.2-0.8,0.5l-6.8,6.3
			c-0.2,0.2-0.3,0.5-0.3,0.8s0.1,0.6,0.3,0.7c0.8,0.8,6.8,5.8,7,6s0.4,0.5,0.8,0.5s0.5-0.1,0.5-1v-3.1h9.4c0.2,0,0.6-0.2,0.6-1v-4.9
			C430.9,78.7,430.4,78.7,430.2,78.7z"/>
		<path id="select_1_" class="st4" d="M36.8,71.7h365.5c3.7,0,6.7,3,6.7,6.7V87c0,3.7-3,6.7-6.7,6.7H36.8c-3.7,0-6.7-3-6.7-6.7v-8.6
			C30.1,74.8,33,71.7,36.8,71.7z"/>
	</g>
	<g>
		<path id="arrow_2_" class="st3" d="M430.2,104.5h-9.7v-3.1c0-0.7-0.3-0.8-0.5-0.8c-0.3,0-0.6,0.2-0.8,0.5l-6.8,6.3
			c-0.2,0.2-0.3,0.5-0.3,0.8s0.1,0.6,0.3,0.7c0.8,0.8,6.8,5.8,7,6s0.4,0.5,0.8,0.5s0.5-0.1,0.5-1v-3.1h9.4c0.2,0,0.6-0.2,0.6-1v-4.9
			C430.9,104.5,430.4,104.5,430.2,104.5z"/>
		<path id="select_2_" class="st4" d="M36.8,97.5h365.5c3.7,0,6.7,3,6.7,6.7v8.6c0,3.7-3,6.7-6.7,6.7H36.8c-3.7,0-6.7-3-6.7-6.7
			v-8.6C30.1,100.6,33,97.5,36.8,97.5z"/>
	</g>
	<g>
		<path id="arrow_3_" class="st3" d="M430.2,156h-9.7v-3.1c0-0.7-0.3-0.8-0.5-0.8c-0.3,0-0.6,0.2-0.8,0.5l-6.8,6.3
			c-0.2,0.2-0.3,0.5-0.3,0.8s0.1,0.6,0.3,0.7c0.8,0.8,6.8,5.8,7,6s0.4,0.5,0.8,0.5s0.5-0.1,0.5-1v-3.1h9.4c0.2,0,0.6-0.2,0.6-1V157
			C430.9,156,430.4,156,430.2,156z"/>
		<path id="select_3_" class="st4" d="M36.8,149.1h365.5c3.7,0,6.7,3,6.7,6.7v8.6c0,3.7-3,6.7-6.7,6.7H36.8c-3.7,0-6.7-3-6.7-6.7
			v-8.6C30.1,152.1,33,149.1,36.8,149.1z"/>
	</g>
</g>
<path class="st5" d="M135.2,131.7c-0.9-1.5-1.2-1.9-1.9-2.2c-0.9-0.5-2.2-0.5-3.2,0.1c-1.1,0.7-1.4,1.5-1.1,3.2
	c-2.8-0.1-5.7,0.8-8.6,2.6c-7.2,4.3-9.9,11.8-6.4,17.7c2,3.3,5.6,5.3,9.5,5.2c2.5-0.1,4.6-0.6,8.8-2.2c4.3-1.7,5.4-2,7-2.1
	c1.7-0.1,3.2,0.6,3.9,1.8c1.5,2.5-0.7,6.3-5,8.9c-3.9,2.3-8.4,2.8-10.2,1.1c-1.4-1.3-1.4-1.3-2-1.4c-0.8-0.2-1.7,0-2.5,0.4
	c-2,1.2-2.1,2.9-0.6,5.5l2.3,3.8c1.6,2.6,3.2,3.2,5.2,2c0.9-0.5,1.2-1,1.5-2.8c3.8-0.2,7.1-1.2,10.3-3.1c7.9-4.7,10.7-11.9,7.2-17.9
	c-1.8-3-4.3-4.7-7.7-5.1c-2.6-0.4-5.3,0.1-10.9,2.2c-4.8,1.8-5.1,1.8-6.6,2c-1.6,0.1-3.3-0.7-4-1.9c-1.5-2.5,0.2-6.1,3.9-8.3
	c3.6-2.1,7.3-2.2,9.2-0.3c1.5,1.6,1.5,1.6,2.2,1.8c0.7,0.2,1.7,0,2.6-0.4c0.9-0.5,1.5-1.4,1.6-2.6c0.1-0.8-0.1-1.3-1.1-3
	L135.2,131.7L135.2,131.7z M176.9,135.8l-13.7,8.2l0.7,4.1l1.3-0.8c1.6-0.9,2.1-1.1,3-1.1c1.1,0.1,2,0.7,2.6,1.7
	c0.6,1,0.6,2.2,0.1,3.3c-0.3,0.6-1,1.1-2.2,1.9l-7.6,4.6c-2.5,1.5-4.3,1.4-5.5-0.6c-0.6-1-0.7-2.3-0.1-3.3c0.3-0.7,0.8-1,2.2-1.9
	l-4.3-27.4l-3.6,2.2c-1.5,0.9-2.1,1.1-3,1.1c-1.1-0.1-2.1-0.7-2.6-1.6c-0.6-1-0.6-2.2-0.1-3.3c0.3-0.7,0.7-1,2.2-1.9l12.4-7.5
	l28.1,20.9c1.6-1,2.2-1.2,3.1-1.1c1.1,0.1,2,0.7,2.6,1.7c1.2,2,0.5,3.6-2.1,5.2l-8,4.8c-1.4,0.8-2.2,1.1-3,1c-1-0.1-2-0.7-2.5-1.6
	c-0.6-1-0.7-2.3-0.1-3.3c0.3-0.7,0.7-1,2.2-1.9l1.3-0.8L176.9,135.8L176.9,135.8z M171.1,131.5l-11.1-8.3l2.1,13.8L171.1,131.5
	L171.1,131.5z M187.8,111.2l10,16.6l2-1.2c1.6-0.9,2.1-1.1,3-1.1c1.1,0.1,2,0.7,2.6,1.7c1.1,1.9,0.5,3.6-2.1,5.2l-7.4,4.5
	c-1.4,0.8-2.3,1.1-3,1c-1.1-0.1-2-0.7-2.6-1.6c-1.1-1.8-0.5-3.6,1.8-5l-13.2-22c-2,1-3.7,0.6-4.7-1.1c-0.6-1-0.6-2.2-0.1-3.3
	c0.2-0.4,1.5-1.6,2.2-1.9l6.3-3.8l18.2,12.3l-2.5-21.7l6.3-3.8c1.6-0.9,2.1-1.1,3-1.1c1,0.2,2,0.7,2.6,1.7c1,1.7,0.5,3.4-1.3,4.7
	l13.2,22c2.2-1.4,4.1-1.1,5.2,0.8c1.1,1.9,0.5,3.6-2.1,5.2l-7.5,4.5c-1.3,0.8-2.2,1.1-3,1c-1-0.1-2-0.7-2.5-1.6
	c-0.6-1-0.7-2.3-0.1-3.3c0.3-0.7,0.7-1,2.2-1.9l2-1.2l-10-16.6l2.3,18.3l-5.2,3.1L187.8,111.2L187.8,111.2z M231.9,99.4l3.5,5.7
	l5.7-3.4c1.5-0.9,2.1-1.1,2.9-1.1c1.1,0.1,2,0.7,2.6,1.7c1.1,1.9,0.5,3.6-2.1,5.2l-12.3,7.4c-1.3,0.8-2.2,1.1-2.9,1
	c-1.1-0.1-2.1-0.7-2.6-1.6c-0.6-1-0.7-2.3-0.1-3.3c0.3-0.7,0.8-1,2.2-1.9l0.9-0.5l-13.2-22l-0.9,0.5c-1.4,0.9-2.1,1.1-2.9,1
	c-1.1-0.1-2.1-0.7-2.6-1.6c-0.6-1-0.7-2.3-0.1-3.3c0.3-0.7,0.7-1,2.2-1.9l13.4-8c7.3-4.4,15.2-3,19,3.4c1.6,2.6,2.2,6,1.5,9.1
	c-0.8,4.3-3.1,7-8.5,10.2L231.9,99.4L231.9,99.4z M222.2,83.2l6.3,10.5l6.8-4.1c4-2.4,5.2-5.8,3.2-9.1c-2-3.3-5.6-3.8-9.6-1.5
	L222.2,83.2L222.2,83.2z M260.4,60.2l3.3-2c1.3-0.8,1.9-1.3,2.2-1.9c0.5-1.1,0.5-2.3-0.1-3.3c-0.6-0.9-1.5-1.5-2.6-1.6
	c-0.8-0.1-1.3,0.1-2.9,1l-12.3,7.4c-1.5,0.9-1.9,1.2-2.2,1.9c-0.6,1-0.5,2.3,0.1,3.3c0.5,0.9,1.5,1.5,2.6,1.7c0.8,0.1,1.5-0.2,3-1.1
	l3.3-2l13.2,22l-3.3,2c-1.5,0.9-1.9,1.2-2.2,1.9c-0.6,1-0.5,2.3,0.1,3.3c1.1,1.9,3,2.1,5.5,0.6l27.1-16.3l-6.6-11
	c-0.9-1.4-1.2-1.9-1.9-2.2c-1.1-0.5-2.3-0.5-3.3,0.1c-0.9,0.6-1.5,1.5-1.6,2.6c-0.1,0.8,0.1,1.3,1.1,3l3.2,5.3l-12.4,7.4L260.4,60.2
	L260.4,60.2z M299.7,55.3l4.9-2.9l0.2,0.4c0.8,1.4,1.2,1.9,1.9,2.2c1,0.6,2.3,0.5,3.2-0.1c0.9-0.6,1.5-1.5,1.7-2.6
	c0.1-0.8-0.1-1.4-1.1-3l-3.9-6.5c-0.7-1.2-1-1.5-1.5-1.9c-1-0.8-2.6-0.9-3.7-0.2c-0.9,0.5-1.5,1.5-1.6,2.6c-0.1,0.8,0.1,1.4,1.1,3
	l0.2,0.4l-4.9,2.9l-4.9-8.1l13.4-8.1l1.7,2.9c0.8,1.4,1.3,1.9,1.9,2.2c1.1,0.5,2.3,0.5,3.3-0.1c0.9-0.6,1.5-1.5,1.6-2.6
	c0.1-0.8-0.1-1.3-1.1-3l-5.2-8.6l-25.8,15.5c-1.5,0.9-1.9,1.2-2.2,1.9c-0.5,1.1-0.5,2.3,0.1,3.3c0.5,0.9,1.5,1.5,2.6,1.6
	c0.8,0.1,1.5-0.2,2.9-1l0.9-0.5l13.2,22l-0.9,0.5c-1.4,0.9-1.9,1.2-2.2,1.9c-0.5,1.1-0.5,2.3,0.1,3.3c0.5,0.9,1.5,1.5,2.6,1.6
	c0.7,0.1,1.6-0.2,2.9-1L328.5,57l-5.3-8.7c-0.8-1.4-1.3-1.9-1.9-2.2c-1.1-0.5-2.3-0.5-3.3,0.1c-0.9,0.6-1.5,1.5-1.7,2.6
	c0,0.9,0.1,1.4,1.1,3l1.8,3l-14.7,8.8L299.7,55.3L299.7,55.3z"/>
</svg>
