<svg viewBox="0 0 74 74" xmlns="http://www.w3.org/2000/svg"><path d="m55.32 12.58h-41.16a1.26 1.26 0 0 0 -1.24 1.26v10a1.25 1.25 0 0 0 1.24 1.25h2.65v39.66a1.25 1.25 0 0 0 1.25 1.25h33.37a1.24 1.24 0 0 0 1.24-1.25v-39.66h2.65a1.25 1.25 0 0 0 1.25-1.25v-10a1.26 1.26 0 0 0 -1.25-1.26z" fill="#eab544"/><path d="m38.14 31.7a8.83 8.83 0 1 0 8.86 8.83 8.84 8.84 0 0 0 -8.86-8.83z" fill="#eab544"/><path d="m38.14 29.29a11.24 11.24 0 1 0 11.24 11.24 11.26 11.26 0 0 0 -11.24-11.24zm0 20.07a8.83 8.83 0 1 1 8.86-8.83 8.84 8.84 0 0 1 -8.86 8.83z" fill="#fff"/><g fill="#1d4288"><path d="m38.19 46.7h-.11a1.45 1.45 0 0 1 -1.46-1.45v-3.09h-3.08a1.46 1.46 0 0 1 -1.46-1.46v-.11a1.46 1.46 0 0 1 1.46-1.46h3.08v-3.08a1.46 1.46 0 0 1 1.46-1.46h.11a1.46 1.46 0 0 1 1.46 1.46v3.08h3.09a1.45 1.45 0 0 1 1.45 1.46v.11a1.45 1.45 0 0 1 -1.45 1.46h-3.09v3.09a1.45 1.45 0 0 1 -1.46 1.45z"/><path d="m59.64 8.32h-42.91a1.3 1.3 0 0 0 -1.3 1.3v10.38a1.3 1.3 0 0 0 1.3 1.3h2.76v41.44a1.3 1.3 0 0 0 1.3 1.3h34.78a1.3 1.3 0 0 0 1.3-1.3v-41.44h2.77a1.3 1.3 0 0 0 1.3-1.3v-10.38a1.31 1.31 0 0 0 -1.3-1.3zm-5.37 49.82v3.3h-32.18v-40.14h32.18zm4.07-39.44h-40.34v-7.78h40.34z"/></g></svg>