<svg viewBox="0 0 74 74" xmlns="http://www.w3.org/2000/svg"><path d="m64.16 52.55v-33.65a5.2 5.2 0 0 0 -5.16-5.17h-49.41a5.19 5.19 0 0 0 -5.19 5.17v33.65h-3.9v2.59a5.2 5.2 0 0 0 5.2 5.18h57.16a5.2 5.2 0 0 0 5.2-5.18v-2.59zm-7.61-14.33a2.69 2.69 0 0 1 -2.7 2.66h-33.27a2.7 2.7 0 0 1 -2.71-2.66v-13.42a2.69 2.69 0 0 1 2.71-2.66h33.27a2.68 2.68 0 0 1 2.7 2.66z" fill="#eab544"/><path d="m71 47.51h-2.58v-32.44a6.54 6.54 0 0 0 -6.53-6.53h-49.37a6.54 6.54 0 0 0 -6.52 6.53v32.44h-2.57a1.33 1.33 0 0 0 -1.33 1.33v2.6a6.53 6.53 0 0 0 6.52 6.56h57.17a6.53 6.53 0 0 0 6.52-6.53v-2.6a1.33 1.33 0 0 0 -1.31-1.36zm-62.35-32.44a3.87 3.87 0 0 1 3.87-3.87h49.37a3.87 3.87 0 0 1 3.87 3.87v32.44h-3.84v-31.15a1.34 1.34 0 0 0 -1.33-1.36h-46.77a1.33 1.33 0 0 0 -1.33 1.33v31.18h-3.84zm36.35 32.44a1.33 1.33 0 0 0 -1.33 1.33 1.27 1.27 0 0 1 -1.27 1.27h-10.4a1.27 1.27 0 0 1 -1.27-1.27 1.34 1.34 0 0 0 -1.33-1.33h-14.25v-29.82h44.11v29.82zm24.65 3.93a3.87 3.87 0 0 1 -3.86 3.87h-57.17a3.87 3.87 0 0 1 -3.86-3.87v-1.27h23.55a3.94 3.94 0 0 0 3.7 2.6h10.39a3.94 3.94 0 0 0 3.7-2.6h23.55z" fill="#1d4288"/></svg>